<?xml version="1.0" encoding="UTF-8"?>
<!DOCTYPE svg PUBLIC "-//W3C//DTD SVG 1.1//EN" "http://www.w3.org/Graphics/SVG/1.1/DTD/svg11.dtd">
<svg xmlns="http://www.w3.org/2000/svg" version="1.1" width="200px" height="200px" style="shape-rendering:geometricPrecision; text-rendering:geometricPrecision; image-rendering:optimizeQuality; fill-rule:evenodd; clip-rule:evenodd" xmlns:xlink="http://www.w3.org/1999/xlink">
<g><path style="opacity:0.802" fill="#000000" d="M 9.5,3.5 C 69.5009,3.33334 129.501,3.50001 189.5,4C 191.286,4.78451 192.786,5.95118 194,7.5C 195.659,68.0843 195.992,128.751 195,189.5C 194.215,191.286 193.049,192.786 191.5,194C 130.916,195.659 70.249,195.992 9.5,195C 7.71398,194.215 6.21398,193.049 5,191.5C 3.3412,130.916 3.00787,70.249 4,9.5C 5.35968,6.97739 7.19301,4.97739 9.5,3.5 Z M 11.5,8.5 C 39.8333,8.5 68.1667,8.5 96.5,8.5C 96.5,69.1667 96.5,129.833 96.5,190.5C 68.1647,190.667 39.8314,190.5 11.5,190C 10.3333,189.5 9.5,188.667 9,187.5C 8.33333,128.833 8.33333,70.1667 9,11.5C 9.69794,10.3094 10.5313,9.30943 11.5,8.5 Z M 102.5,8.5 C 130.835,8.33336 159.169,8.50002 187.5,9C 188.308,9.30762 188.975,9.80762 189.5,10.5C 190.163,40.1255 190.496,69.7921 190.5,99.5C 190.496,129.208 190.163,158.875 189.5,188.5C 188.975,189.192 188.308,189.692 187.5,190C 159.169,190.5 130.835,190.667 102.5,190.5C 102.5,129.833 102.5,69.1667 102.5,8.5 Z M 27.5,25.5 C 32.439,24.3519 35.939,26.0186 38,30.5C 38.6667,49.1667 38.6667,67.8333 38,86.5C 35.0868,91.6894 30.9201,92.8561 25.5,90C 24.8742,89.2496 24.3742,88.4162 24,87.5C 23.3333,68.1667 23.3333,48.8333 24,29.5C 24.6897,27.6498 25.8564,26.3164 27.5,25.5 Z M 123.5,97.5 C 131.402,98.9749 133.735,103.308 130.5,110.5C 123.553,115.555 118.886,113.888 116.5,105.5C 117.48,101.527 119.814,98.8602 123.5,97.5 Z M 163.5,108.5 C 167.594,107.705 170.761,109.038 173,112.5C 173.667,131.833 173.667,151.167 173,170.5C 168.333,177.167 163.667,177.167 159,170.5C 158.333,151.5 158.333,132.5 159,113.5C 160.025,111.313 161.525,109.646 163.5,108.5 Z"/></g>
<g><path style="opacity:0.765" fill="#000000" d="M 28.5,19.5 C 35.5114,19.0849 40.3447,22.0849 43,28.5C 43.6667,48.5 43.6667,68.5 43,88.5C 38.6113,96.8907 32.1113,99.0574 23.5,95C 19.9527,92.4056 18.1193,88.9056 18,84.5C 17.3333,66.8333 17.3333,49.1667 18,31.5C 19.2424,25.4299 22.7424,21.4299 28.5,19.5 Z M 27.5,25.5 C 25.8564,26.3164 24.6897,27.6498 24,29.5C 23.3333,48.8333 23.3333,68.1667 24,87.5C 24.3742,88.4162 24.8742,89.2496 25.5,90C 30.9201,92.8561 35.0868,91.6894 38,86.5C 38.6667,67.8333 38.6667,49.1667 38,30.5C 35.939,26.0186 32.439,24.3519 27.5,25.5 Z"/></g>
<g><path style="opacity:0.769" fill="#000000" d="M 121.5,92.5 C 134.888,92.9392 139.722,99.6059 136,112.5C 128.333,120.5 120.667,120.5 113,112.5C 109.589,103.004 112.422,96.337 121.5,92.5 Z M 123.5,97.5 C 119.814,98.8602 117.48,101.527 116.5,105.5C 118.886,113.888 123.553,115.555 130.5,110.5C 133.735,103.308 131.402,98.9749 123.5,97.5 Z"/></g>
<g><path style="opacity:0.817" fill="#000000" d="M 161.5,103.5 C 169.128,102.065 174.628,104.732 178,111.5C 178.667,131.833 178.667,152.167 178,172.5C 173.767,180.023 167.6,182.189 159.5,179C 157.291,177.127 155.458,174.96 154,172.5C 153.333,152.167 153.333,131.833 154,111.5C 155.353,107.65 157.853,104.983 161.5,103.5 Z M 163.5,108.5 C 161.525,109.646 160.025,111.313 159,113.5C 158.333,132.5 158.333,151.5 159,170.5C 163.667,177.167 168.333,177.167 173,170.5C 173.667,151.167 173.667,131.833 173,112.5C 170.761,109.038 167.594,107.705 163.5,108.5 Z"/></g>
</svg>
